<mxfile host="Electron" agent="Mozilla/5.0 (Windows NT 10.0; Win64; x64) AppleWebKit/537.36 (KHTML, like Gecko) draw.io/24.7.8 Chrome/128.0.6613.36 Electron/32.0.1 Safari/537.36" version="24.7.8">
  <diagram name="Page-1" id="qBuiqqgdlqBmQpsBOJXQ">
    <mxGraphModel dx="1900" dy="638" grid="1" gridSize="10" guides="1" tooltips="1" connect="1" arrows="1" fold="1" page="1" pageScale="1" pageWidth="850" pageHeight="1100" math="0" shadow="0">
      <root>
        <mxCell id="0" />
        <mxCell id="1" parent="0" />
        <mxCell id="i6rN2alse8BtCWGwf0c1-1" style="edgeStyle=none;rounded=0;orthogonalLoop=1;jettySize=auto;html=1;exitX=0;exitY=0.25;exitDx=0;exitDy=0;entryX=1;entryY=0.5;entryDx=0;entryDy=0;" edge="1" parent="1" target="i6rN2alse8BtCWGwf0c1-5">
          <mxGeometry relative="1" as="geometry">
            <mxPoint x="150" y="320" as="sourcePoint" />
            <mxPoint x="-10" y="240" as="targetPoint" />
          </mxGeometry>
        </mxCell>
        <mxCell id="i6rN2alse8BtCWGwf0c1-2" style="edgeStyle=none;rounded=0;orthogonalLoop=1;jettySize=auto;html=1;exitX=0;exitY=0.25;exitDx=0;exitDy=0;entryX=1;entryY=0.5;entryDx=0;entryDy=0;" edge="1" parent="1" target="i6rN2alse8BtCWGwf0c1-6">
          <mxGeometry relative="1" as="geometry">
            <mxPoint x="150" y="320" as="sourcePoint" />
            <mxPoint x="-10" y="290" as="targetPoint" />
          </mxGeometry>
        </mxCell>
        <mxCell id="i6rN2alse8BtCWGwf0c1-3" style="edgeStyle=none;rounded=0;orthogonalLoop=1;jettySize=auto;html=1;exitX=0;exitY=0.25;exitDx=0;exitDy=0;entryX=1;entryY=0.5;entryDx=0;entryDy=0;" edge="1" parent="1" target="i6rN2alse8BtCWGwf0c1-7">
          <mxGeometry relative="1" as="geometry">
            <mxPoint x="150" y="320" as="sourcePoint" />
            <mxPoint x="-10" y="340" as="targetPoint" />
          </mxGeometry>
        </mxCell>
        <mxCell id="i6rN2alse8BtCWGwf0c1-4" value="Korisnik" style="rounded=0;whiteSpace=wrap;html=1;" vertex="1" parent="1">
          <mxGeometry x="150" y="300" width="100" height="40" as="geometry" />
        </mxCell>
        <mxCell id="i6rN2alse8BtCWGwf0c1-5" value="Sifra" style="ellipse;whiteSpace=wrap;html=1;" vertex="1" parent="1">
          <mxGeometry x="-90" y="240" width="80" height="40" as="geometry" />
        </mxCell>
        <mxCell id="i6rN2alse8BtCWGwf0c1-6" value="Korisničko ime" style="ellipse;whiteSpace=wrap;html=1;" vertex="1" parent="1">
          <mxGeometry x="-90" y="290" width="80" height="40" as="geometry" />
        </mxCell>
        <mxCell id="i6rN2alse8BtCWGwf0c1-7" value="Email" style="ellipse;whiteSpace=wrap;html=1;" vertex="1" parent="1">
          <mxGeometry x="-90" y="340" width="80" height="40" as="geometry" />
        </mxCell>
        <mxCell id="i6rN2alse8BtCWGwf0c1-8" value="Radi" style="rhombus;whiteSpace=wrap;html=1;" vertex="1" parent="1">
          <mxGeometry x="330" y="295" width="60" height="50" as="geometry" />
        </mxCell>
        <mxCell id="i6rN2alse8BtCWGwf0c1-9" value="" style="endArrow=none;html=1;rounded=0;exitX=1;exitY=0.5;exitDx=0;exitDy=0;entryX=0;entryY=0.5;entryDx=0;entryDy=0;" edge="1" parent="1" source="i6rN2alse8BtCWGwf0c1-4" target="i6rN2alse8BtCWGwf0c1-8">
          <mxGeometry width="50" height="50" relative="1" as="geometry">
            <mxPoint x="500" y="330" as="sourcePoint" />
            <mxPoint x="550" y="280" as="targetPoint" />
          </mxGeometry>
        </mxCell>
        <mxCell id="i6rN2alse8BtCWGwf0c1-10" value="N" style="text;html=1;strokeColor=none;fillColor=none;align=center;verticalAlign=middle;whiteSpace=wrap;rounded=0;" vertex="1" parent="1">
          <mxGeometry x="270" y="300" width="40" height="20" as="geometry" />
        </mxCell>
        <mxCell id="i6rN2alse8BtCWGwf0c1-11" value="1" style="text;html=1;strokeColor=none;fillColor=none;align=center;verticalAlign=middle;whiteSpace=wrap;rounded=0;" vertex="1" parent="1">
          <mxGeometry x="430" y="300" width="40" height="20" as="geometry" />
        </mxCell>
        <mxCell id="i6rN2alse8BtCWGwf0c1-12" style="edgeStyle=none;rounded=0;orthogonalLoop=1;jettySize=auto;html=1;exitX=0.5;exitY=0;exitDx=0;exitDy=0;entryX=0.5;entryY=1;entryDx=0;entryDy=0;" edge="1" parent="1" source="i6rN2alse8BtCWGwf0c1-16" target="i6rN2alse8BtCWGwf0c1-29">
          <mxGeometry relative="1" as="geometry" />
        </mxCell>
        <mxCell id="i6rN2alse8BtCWGwf0c1-13" style="edgeStyle=none;rounded=0;orthogonalLoop=1;jettySize=auto;html=1;exitX=0.5;exitY=0;exitDx=0;exitDy=0;entryX=0.5;entryY=1;entryDx=0;entryDy=0;" edge="1" parent="1" source="i6rN2alse8BtCWGwf0c1-16" target="i6rN2alse8BtCWGwf0c1-30">
          <mxGeometry relative="1" as="geometry" />
        </mxCell>
        <mxCell id="i6rN2alse8BtCWGwf0c1-14" style="edgeStyle=none;rounded=0;orthogonalLoop=1;jettySize=auto;html=1;exitX=0.5;exitY=0;exitDx=0;exitDy=0;entryX=0.5;entryY=1;entryDx=0;entryDy=0;" edge="1" parent="1" source="i6rN2alse8BtCWGwf0c1-16" target="i6rN2alse8BtCWGwf0c1-31">
          <mxGeometry relative="1" as="geometry" />
        </mxCell>
        <mxCell id="i6rN2alse8BtCWGwf0c1-15" value="" style="edgeStyle=orthogonalEdgeStyle;rounded=0;orthogonalLoop=1;jettySize=auto;html=1;" edge="1" parent="1" source="i6rN2alse8BtCWGwf0c1-16" target="i6rN2alse8BtCWGwf0c1-8">
          <mxGeometry relative="1" as="geometry" />
        </mxCell>
        <mxCell id="i6rN2alse8BtCWGwf0c1-16" value="Kupovina paketa&amp;nbsp;" style="rounded=0;whiteSpace=wrap;html=1;" vertex="1" parent="1">
          <mxGeometry x="470" y="300" width="100" height="40" as="geometry" />
        </mxCell>
        <mxCell id="i6rN2alse8BtCWGwf0c1-17" value="" style="endArrow=none;html=1;rounded=0;exitX=1;exitY=0.5;exitDx=0;exitDy=0;entryX=0;entryY=0.5;entryDx=0;entryDy=0;" edge="1" parent="1" source="i6rN2alse8BtCWGwf0c1-8" target="i6rN2alse8BtCWGwf0c1-16">
          <mxGeometry width="50" height="50" relative="1" as="geometry">
            <mxPoint x="500" y="330" as="sourcePoint" />
            <mxPoint x="550" y="280" as="targetPoint" />
          </mxGeometry>
        </mxCell>
        <mxCell id="i6rN2alse8BtCWGwf0c1-18" style="edgeStyle=none;rounded=0;orthogonalLoop=1;jettySize=auto;html=1;exitX=0.5;exitY=1;exitDx=0;exitDy=0;entryX=0.5;entryY=0;entryDx=0;entryDy=0;" edge="1" parent="1" source="i6rN2alse8BtCWGwf0c1-20" target="i6rN2alse8BtCWGwf0c1-27">
          <mxGeometry relative="1" as="geometry" />
        </mxCell>
        <mxCell id="i6rN2alse8BtCWGwf0c1-19" style="edgeStyle=none;rounded=0;orthogonalLoop=1;jettySize=auto;html=1;exitX=0.5;exitY=1;exitDx=0;exitDy=0;entryX=0.5;entryY=0;entryDx=0;entryDy=0;" edge="1" parent="1" source="i6rN2alse8BtCWGwf0c1-20" target="i6rN2alse8BtCWGwf0c1-28">
          <mxGeometry relative="1" as="geometry" />
        </mxCell>
        <mxCell id="i6rN2alse8BtCWGwf0c1-20" value="Sustav naplate" style="rounded=0;whiteSpace=wrap;html=1;" vertex="1" parent="1">
          <mxGeometry x="470" y="490" width="100" height="40" as="geometry" />
        </mxCell>
        <mxCell id="i6rN2alse8BtCWGwf0c1-21" value="Ima" style="rhombus;whiteSpace=wrap;html=1;" vertex="1" parent="1">
          <mxGeometry x="495" y="390" width="50" height="50" as="geometry" />
        </mxCell>
        <mxCell id="i6rN2alse8BtCWGwf0c1-22" value="" style="endArrow=none;html=1;rounded=0;exitX=0.5;exitY=1;exitDx=0;exitDy=0;entryX=0.5;entryY=0;entryDx=0;entryDy=0;" edge="1" parent="1" source="i6rN2alse8BtCWGwf0c1-16" target="i6rN2alse8BtCWGwf0c1-21">
          <mxGeometry width="50" height="50" relative="1" as="geometry">
            <mxPoint x="600" y="410" as="sourcePoint" />
            <mxPoint x="650" y="360" as="targetPoint" />
          </mxGeometry>
        </mxCell>
        <mxCell id="i6rN2alse8BtCWGwf0c1-23" value="" style="endArrow=none;html=1;rounded=0;exitX=0.5;exitY=1;exitDx=0;exitDy=0;" edge="1" parent="1" source="i6rN2alse8BtCWGwf0c1-21" target="i6rN2alse8BtCWGwf0c1-20">
          <mxGeometry width="50" height="50" relative="1" as="geometry">
            <mxPoint x="600" y="410" as="sourcePoint" />
            <mxPoint x="650" y="360" as="targetPoint" />
          </mxGeometry>
        </mxCell>
        <mxCell id="i6rN2alse8BtCWGwf0c1-24" value="1" style="text;html=1;strokeColor=none;fillColor=none;align=center;verticalAlign=middle;whiteSpace=wrap;rounded=0;" vertex="1" parent="1">
          <mxGeometry x="510" y="470" width="40" height="20" as="geometry" />
        </mxCell>
        <mxCell id="i6rN2alse8BtCWGwf0c1-25" value="N" style="text;html=1;strokeColor=none;fillColor=none;align=center;verticalAlign=middle;whiteSpace=wrap;rounded=0;" vertex="1" parent="1">
          <mxGeometry x="510" y="340" width="40" height="20" as="geometry" />
        </mxCell>
        <mxCell id="i6rN2alse8BtCWGwf0c1-26" value="Ima" style="rhombus;whiteSpace=wrap;html=1;" vertex="1" parent="1">
          <mxGeometry x="630" y="295" width="60" height="50" as="geometry" />
        </mxCell>
        <mxCell id="i6rN2alse8BtCWGwf0c1-27" value="Sifra" style="ellipse;whiteSpace=wrap;html=1;" vertex="1" parent="1">
          <mxGeometry x="430" y="584" width="80" height="36" as="geometry" />
        </mxCell>
        <mxCell id="i6rN2alse8BtCWGwf0c1-28" value="Naziv" style="ellipse;whiteSpace=wrap;html=1;" vertex="1" parent="1">
          <mxGeometry x="540" y="584" width="80" height="36" as="geometry" />
        </mxCell>
        <mxCell id="i6rN2alse8BtCWGwf0c1-29" value="Sifra" style="ellipse;whiteSpace=wrap;html=1;" vertex="1" parent="1">
          <mxGeometry x="390" y="210" width="80" height="40" as="geometry" />
        </mxCell>
        <mxCell id="i6rN2alse8BtCWGwf0c1-30" value="Naziv" style="ellipse;whiteSpace=wrap;html=1;" vertex="1" parent="1">
          <mxGeometry x="480" y="210" width="80" height="40" as="geometry" />
        </mxCell>
        <mxCell id="i6rN2alse8BtCWGwf0c1-31" value="Iznos" style="ellipse;whiteSpace=wrap;html=1;" vertex="1" parent="1">
          <mxGeometry x="570" y="210" width="80" height="40" as="geometry" />
        </mxCell>
        <mxCell id="i6rN2alse8BtCWGwf0c1-32" value="" style="endArrow=none;html=1;rounded=0;exitX=1;exitY=0.5;exitDx=0;exitDy=0;entryX=0;entryY=0.5;entryDx=0;entryDy=0;" edge="1" parent="1" source="i6rN2alse8BtCWGwf0c1-16" target="i6rN2alse8BtCWGwf0c1-26">
          <mxGeometry width="50" height="50" relative="1" as="geometry">
            <mxPoint x="580" y="380" as="sourcePoint" />
            <mxPoint x="630" y="330" as="targetPoint" />
          </mxGeometry>
        </mxCell>
        <mxCell id="i6rN2alse8BtCWGwf0c1-33" value="" style="endArrow=none;html=1;rounded=0;exitX=0;exitY=0.5;exitDx=0;exitDy=0;entryX=1;entryY=0.5;entryDx=0;entryDy=0;" edge="1" parent="1" target="i6rN2alse8BtCWGwf0c1-26">
          <mxGeometry width="50" height="50" relative="1" as="geometry">
            <mxPoint x="760" y="320" as="sourcePoint" />
            <mxPoint x="630" y="330" as="targetPoint" />
          </mxGeometry>
        </mxCell>
        <mxCell id="i6rN2alse8BtCWGwf0c1-34" value="1" style="text;html=1;strokeColor=none;fillColor=none;align=center;verticalAlign=middle;whiteSpace=wrap;rounded=0;" vertex="1" parent="1">
          <mxGeometry x="560" y="300" width="40" height="20" as="geometry" />
        </mxCell>
        <mxCell id="i6rN2alse8BtCWGwf0c1-35" value="1" style="text;html=1;strokeColor=none;fillColor=none;align=center;verticalAlign=middle;whiteSpace=wrap;rounded=0;" vertex="1" parent="1">
          <mxGeometry x="560" y="300" width="40" height="20" as="geometry" />
        </mxCell>
        <mxCell id="i6rN2alse8BtCWGwf0c1-36" value="N" style="text;html=1;strokeColor=none;fillColor=none;align=center;verticalAlign=middle;whiteSpace=wrap;rounded=0;" vertex="1" parent="1">
          <mxGeometry x="730" y="300" width="40" height="20" as="geometry" />
        </mxCell>
        <mxCell id="i6rN2alse8BtCWGwf0c1-37" style="edgeStyle=none;rounded=0;orthogonalLoop=1;jettySize=auto;html=1;exitX=1;exitY=0.5;exitDx=0;exitDy=0;entryX=0;entryY=0.5;entryDx=0;entryDy=0;" edge="1" parent="1" source="i6rN2alse8BtCWGwf0c1-39" target="i6rN2alse8BtCWGwf0c1-40">
          <mxGeometry relative="1" as="geometry" />
        </mxCell>
        <mxCell id="i6rN2alse8BtCWGwf0c1-38" style="edgeStyle=none;rounded=0;orthogonalLoop=1;jettySize=auto;html=1;exitX=1;exitY=0.5;exitDx=0;exitDy=0;entryX=0;entryY=0.5;entryDx=0;entryDy=0;" edge="1" parent="1" source="i6rN2alse8BtCWGwf0c1-39" target="i6rN2alse8BtCWGwf0c1-41">
          <mxGeometry relative="1" as="geometry" />
        </mxCell>
        <mxCell id="i6rN2alse8BtCWGwf0c1-39" value="Sadržaj" style="rounded=0;whiteSpace=wrap;html=1;" vertex="1" parent="1">
          <mxGeometry x="1040" y="300" width="100" height="40" as="geometry" />
        </mxCell>
        <mxCell id="i6rN2alse8BtCWGwf0c1-40" value="Sifra" style="ellipse;whiteSpace=wrap;html=1;" vertex="1" parent="1">
          <mxGeometry x="1200" y="240" width="80" height="40" as="geometry" />
        </mxCell>
        <mxCell id="i6rN2alse8BtCWGwf0c1-41" value="Naziv" style="ellipse;whiteSpace=wrap;html=1;" vertex="1" parent="1">
          <mxGeometry x="1200" y="330" width="80" height="40" as="geometry" />
        </mxCell>
        <mxCell id="i6rN2alse8BtCWGwf0c1-42" style="edgeStyle=none;rounded=0;orthogonalLoop=1;jettySize=auto;html=1;exitX=1;exitY=0.5;exitDx=0;exitDy=0;entryX=0;entryY=0.5;entryDx=0;entryDy=0;" edge="1" parent="1" source="i6rN2alse8BtCWGwf0c1-44" target="i6rN2alse8BtCWGwf0c1-52">
          <mxGeometry relative="1" as="geometry" />
        </mxCell>
        <mxCell id="i6rN2alse8BtCWGwf0c1-43" style="edgeStyle=none;rounded=0;orthogonalLoop=1;jettySize=auto;html=1;exitX=1;exitY=0.5;exitDx=0;exitDy=0;entryX=0;entryY=0.5;entryDx=0;entryDy=0;" edge="1" parent="1" source="i6rN2alse8BtCWGwf0c1-44" target="i6rN2alse8BtCWGwf0c1-53">
          <mxGeometry relative="1" as="geometry" />
        </mxCell>
        <mxCell id="i6rN2alse8BtCWGwf0c1-44" value="Žanr" style="rounded=0;whiteSpace=wrap;html=1;" vertex="1" parent="1">
          <mxGeometry x="1040" y="70" width="100" height="40" as="geometry" />
        </mxCell>
        <mxCell id="i6rN2alse8BtCWGwf0c1-45" style="edgeStyle=none;rounded=0;orthogonalLoop=1;jettySize=auto;html=1;exitX=1;exitY=0.5;exitDx=0;exitDy=0;entryX=0;entryY=0.5;entryDx=0;entryDy=0;" edge="1" parent="1" source="i6rN2alse8BtCWGwf0c1-47" target="i6rN2alse8BtCWGwf0c1-58">
          <mxGeometry relative="1" as="geometry" />
        </mxCell>
        <mxCell id="i6rN2alse8BtCWGwf0c1-46" style="edgeStyle=none;rounded=0;orthogonalLoop=1;jettySize=auto;html=1;exitX=1;exitY=0.5;exitDx=0;exitDy=0;entryX=0;entryY=0.5;entryDx=0;entryDy=0;" edge="1" parent="1" source="i6rN2alse8BtCWGwf0c1-47" target="i6rN2alse8BtCWGwf0c1-59">
          <mxGeometry relative="1" as="geometry" />
        </mxCell>
        <mxCell id="i6rN2alse8BtCWGwf0c1-47" value="Recenzija" style="rounded=0;whiteSpace=wrap;html=1;" vertex="1" parent="1">
          <mxGeometry x="1040" y="490" width="100" height="40" as="geometry" />
        </mxCell>
        <mxCell id="i6rN2alse8BtCWGwf0c1-48" value="Ima" style="rhombus;whiteSpace=wrap;html=1;" vertex="1" parent="1">
          <mxGeometry x="1065" y="390" width="50" height="50" as="geometry" />
        </mxCell>
        <mxCell id="i6rN2alse8BtCWGwf0c1-49" value="Ima" style="rhombus;whiteSpace=wrap;html=1;" vertex="1" parent="1">
          <mxGeometry x="1060" y="180" width="60" height="50" as="geometry" />
        </mxCell>
        <mxCell id="i6rN2alse8BtCWGwf0c1-50" value="" style="endArrow=none;html=1;rounded=0;entryX=0.5;entryY=1;entryDx=0;entryDy=0;exitX=0.5;exitY=0;exitDx=0;exitDy=0;" edge="1" parent="1" source="i6rN2alse8BtCWGwf0c1-39" target="i6rN2alse8BtCWGwf0c1-49">
          <mxGeometry width="50" height="50" relative="1" as="geometry">
            <mxPoint x="1040" y="330" as="sourcePoint" />
            <mxPoint x="1090" y="280" as="targetPoint" />
          </mxGeometry>
        </mxCell>
        <mxCell id="i6rN2alse8BtCWGwf0c1-51" value="" style="endArrow=none;html=1;rounded=0;entryX=0.5;entryY=1;entryDx=0;entryDy=0;exitX=0.5;exitY=0;exitDx=0;exitDy=0;" edge="1" parent="1" source="i6rN2alse8BtCWGwf0c1-49" target="i6rN2alse8BtCWGwf0c1-44">
          <mxGeometry width="50" height="50" relative="1" as="geometry">
            <mxPoint x="1040" y="330" as="sourcePoint" />
            <mxPoint x="1090" y="280" as="targetPoint" />
          </mxGeometry>
        </mxCell>
        <mxCell id="i6rN2alse8BtCWGwf0c1-52" value="Sifra" style="ellipse;whiteSpace=wrap;html=1;" vertex="1" parent="1">
          <mxGeometry x="1200" y="50" width="80" height="40" as="geometry" />
        </mxCell>
        <mxCell id="i6rN2alse8BtCWGwf0c1-53" value="Naziv" style="ellipse;whiteSpace=wrap;html=1;" vertex="1" parent="1">
          <mxGeometry x="1200" y="140" width="80" height="40" as="geometry" />
        </mxCell>
        <mxCell id="i6rN2alse8BtCWGwf0c1-54" value="1" style="text;html=1;strokeColor=none;fillColor=none;align=center;verticalAlign=middle;whiteSpace=wrap;rounded=0;" vertex="1" parent="1">
          <mxGeometry x="1080" y="280" width="40" height="20" as="geometry" />
        </mxCell>
        <mxCell id="i6rN2alse8BtCWGwf0c1-55" value="N" style="text;html=1;strokeColor=none;fillColor=none;align=center;verticalAlign=middle;whiteSpace=wrap;rounded=0;" vertex="1" parent="1">
          <mxGeometry x="1080" y="110" width="40" height="20" as="geometry" />
        </mxCell>
        <mxCell id="i6rN2alse8BtCWGwf0c1-56" value="" style="endArrow=none;html=1;rounded=0;entryX=0.5;entryY=0;entryDx=0;entryDy=0;exitX=0.5;exitY=1;exitDx=0;exitDy=0;" edge="1" parent="1" source="i6rN2alse8BtCWGwf0c1-48" target="i6rN2alse8BtCWGwf0c1-47">
          <mxGeometry width="50" height="50" relative="1" as="geometry">
            <mxPoint x="1080" y="450" as="sourcePoint" />
            <mxPoint x="1130" y="400" as="targetPoint" />
          </mxGeometry>
        </mxCell>
        <mxCell id="i6rN2alse8BtCWGwf0c1-57" value="" style="endArrow=none;html=1;rounded=0;exitX=0.5;exitY=1;exitDx=0;exitDy=0;entryX=0.5;entryY=0;entryDx=0;entryDy=0;" edge="1" parent="1" source="i6rN2alse8BtCWGwf0c1-39" target="i6rN2alse8BtCWGwf0c1-48">
          <mxGeometry width="50" height="50" relative="1" as="geometry">
            <mxPoint x="1080" y="450" as="sourcePoint" />
            <mxPoint x="1130" y="400" as="targetPoint" />
          </mxGeometry>
        </mxCell>
        <mxCell id="i6rN2alse8BtCWGwf0c1-58" value="Sifra" style="ellipse;whiteSpace=wrap;html=1;" vertex="1" parent="1">
          <mxGeometry x="1200" y="450" width="80" height="40" as="geometry" />
        </mxCell>
        <mxCell id="i6rN2alse8BtCWGwf0c1-59" value="Sadrzaj" style="ellipse;whiteSpace=wrap;html=1;" vertex="1" parent="1">
          <mxGeometry x="1200" y="530" width="80" height="40" as="geometry" />
        </mxCell>
        <mxCell id="i6rN2alse8BtCWGwf0c1-60" value="1" style="text;html=1;strokeColor=none;fillColor=none;align=center;verticalAlign=middle;whiteSpace=wrap;rounded=0;" vertex="1" parent="1">
          <mxGeometry x="1080" y="350" width="40" height="20" as="geometry" />
        </mxCell>
        <mxCell id="i6rN2alse8BtCWGwf0c1-61" value="N" style="text;html=1;strokeColor=none;fillColor=none;align=center;verticalAlign=middle;whiteSpace=wrap;rounded=0;" vertex="1" parent="1">
          <mxGeometry x="1080" y="460" width="40" height="20" as="geometry" />
        </mxCell>
        <mxCell id="i6rN2alse8BtCWGwf0c1-62" value="Kanal" style="rounded=0;whiteSpace=wrap;html=1;" vertex="1" parent="1">
          <mxGeometry x="760" y="300" width="100" height="40" as="geometry" />
        </mxCell>
        <mxCell id="i6rN2alse8BtCWGwf0c1-63" value="" style="endArrow=none;html=1;rounded=0;exitX=1;exitY=0.5;exitDx=0;exitDy=0;entryX=0;entryY=0.5;entryDx=0;entryDy=0;" edge="1" parent="1">
          <mxGeometry width="50" height="50" relative="1" as="geometry">
            <mxPoint x="860" y="319" as="sourcePoint" />
            <mxPoint x="920" y="319" as="targetPoint" />
          </mxGeometry>
        </mxCell>
        <mxCell id="i6rN2alse8BtCWGwf0c1-64" value="1" style="text;html=1;strokeColor=none;fillColor=none;align=center;verticalAlign=middle;whiteSpace=wrap;rounded=0;" vertex="1" parent="1">
          <mxGeometry x="870" y="300" width="40" height="20" as="geometry" />
        </mxCell>
        <mxCell id="i6rN2alse8BtCWGwf0c1-65" value="Ima" style="rhombus;whiteSpace=wrap;html=1;" vertex="1" parent="1">
          <mxGeometry x="920" y="295" width="60" height="50" as="geometry" />
        </mxCell>
        <mxCell id="i6rN2alse8BtCWGwf0c1-66" value="N" style="text;html=1;strokeColor=none;fillColor=none;align=center;verticalAlign=middle;whiteSpace=wrap;rounded=0;" vertex="1" parent="1">
          <mxGeometry x="1000" y="300" width="40" height="20" as="geometry" />
        </mxCell>
        <mxCell id="i6rN2alse8BtCWGwf0c1-67" value="" style="endArrow=none;html=1;rounded=0;exitX=1;exitY=0.5;exitDx=0;exitDy=0;entryX=0;entryY=0.5;entryDx=0;entryDy=0;" edge="1" parent="1">
          <mxGeometry width="50" height="50" relative="1" as="geometry">
            <mxPoint x="980" y="320" as="sourcePoint" />
            <mxPoint x="1040" y="320" as="targetPoint" />
          </mxGeometry>
        </mxCell>
        <mxCell id="i6rN2alse8BtCWGwf0c1-68" style="edgeStyle=none;rounded=0;orthogonalLoop=1;jettySize=auto;html=1;entryX=0.5;entryY=1;entryDx=0;entryDy=0;exitX=0.5;exitY=0;exitDx=0;exitDy=0;" edge="1" parent="1" source="i6rN2alse8BtCWGwf0c1-62" target="i6rN2alse8BtCWGwf0c1-69">
          <mxGeometry relative="1" as="geometry">
            <mxPoint x="790" y="300" as="sourcePoint" />
          </mxGeometry>
        </mxCell>
        <mxCell id="i6rN2alse8BtCWGwf0c1-69" value="Sifra" style="ellipse;whiteSpace=wrap;html=1;" vertex="1" parent="1">
          <mxGeometry x="710" y="205" width="80" height="40" as="geometry" />
        </mxCell>
        <mxCell id="i6rN2alse8BtCWGwf0c1-70" style="edgeStyle=none;rounded=0;orthogonalLoop=1;jettySize=auto;html=1;entryX=0.5;entryY=1;entryDx=0;entryDy=0;" edge="1" parent="1" target="i6rN2alse8BtCWGwf0c1-71">
          <mxGeometry relative="1" as="geometry">
            <mxPoint x="810" y="300" as="sourcePoint" />
          </mxGeometry>
        </mxCell>
        <mxCell id="i6rN2alse8BtCWGwf0c1-71" value="Naziv" style="ellipse;whiteSpace=wrap;html=1;" vertex="1" parent="1">
          <mxGeometry x="820" y="205" width="80" height="40" as="geometry" />
        </mxCell>
      </root>
    </mxGraphModel>
  </diagram>
</mxfile>
